<svg xmlns="http://www.w3.org/2000/svg" width="430.83377pt" height="225pt" viewBox="0 0 430.83378 225"><path fill="#0084ca" d="M222.893 155.803h-1.588l-1.074 5.157h1.4c2.07 0 4.553-.629 4.553-3.15 0-2.007-1.734-2.007-3.29-2.007M191.035 84.636s12.972 30.544 18.831 44.333c5.42-20.214 22.285-83.169 23.322-87.063-7.374 7.479-42.153 42.73-42.153 42.73M280.882 69.225c2.39-7.62-4.465-8.705-12.07-8.705h-11.158l-4.868 18.029c17.761-.026 25.455-.818 28.096-9.324M171.655 156.196l-4.602 8.323h5.923l-1.206-8.323zM113.844 155.478c-4.476 0-6.756 5.173-6.756 9.04 0 2.495 1.253 4.707 4.02 4.707 4.392 0 6.824-5.252 6.824-9.062 0-2.557-1.316-4.685-4.088-4.685M132.397 155.803h-1.567l-1.069 5.157h1.384c2.065 0 4.549-.629 4.549-3.15 0-2.007-1.724-2.007-3.297-2.007" style="stroke-width:5.24097"/><path fill="#0084ca" d="M215.42 0C96.45 0 0 50.366 0 112.503 0 174.634 96.45 225 215.42 225c118.97 0 215.414-50.366 215.414-112.497C430.834 50.366 334.389 0 215.42 0m145.017 185.834c-38.762 19.203-90.26 29.78-145.017 29.78-54.753 0-106.256-10.577-145.023-29.78C31.184 166.406 9.58 140.358 9.58 112.503c0-27.867 21.604-53.909 60.817-73.337 38.767-19.203 90.27-29.774 145.023-29.774 54.757 0 106.255 10.57 145.017 29.774 39.218 19.428 60.822 45.47 60.822 73.337 0 27.855-21.604 53.903-60.822 73.331" style="stroke-width:5.24097"/><path fill="#0084ca" d="M215.415 13.297c-111.68 0-202.547 44.5-202.547 99.2 0 54.706 90.868 99.207 202.547 99.207 111.69 0 202.553-44.501 202.553-99.206 0-54.7-90.862-99.201-202.553-99.201M95.822 171.915l-5.32-9.722-2.091 9.722h-3.82l4.119-19.125h3.83l-1.619 7.51h.042l7.594-7.51h5.346l-9.67 8.71 6.154 10.415zm22.913-2.872c-2.007 2.227-4.926 3.197-8.118 3.197-4.717 0-7.537-3.391-7.537-7.935 0-3.035 1.064-6.001 3.009-8.281 2.096-2.39 4.738-3.564 7.85-3.564 5.194 0 7.988 3.019 7.988 8.124 0 3.118-1.148 6.153-3.192 8.459m15.377-6.636v.058c1.033.052 1.698.708 1.95 1.756l1.818 7.694h-4.014l-.944-4.492c-.435-2.033-.324-3.449-2.41-3.449h-1.442l-1.698 7.94h-3.805l3.994-19.124h4.523c3.527 0 7.61-.047 7.61 4.518 0 3.291-2.463 5.047-5.582 5.1m23.605-6.61h-7.473l-1.001 4.723h6.703l-.613 3.018h-6.703l-1.127 5.367h7.563l-.66 3.009H143.01l4.01-19.125h11.278zm16.436 16.117-.66-4.382h-8.14l-2.436 4.382h-4.246l11.583-19.125h4.245l3.48 19.125zm24.266 0h-4.937l-3.994-14.649h-.063l-3.04 14.649h-3.679l4.13-19.125h4.848l4.067 14.523h.058l3.134-14.523h3.616zm26.158-9.508v.058c1.042.052 1.719.708 1.954 1.756l1.824 7.693h-4.02l-.927-4.491c-.435-2.034-.325-3.449-2.4-3.449h-1.463l-1.682 7.94h-3.816l3.994-19.124h4.507c3.543 0 7.642-.047 7.642 4.518 0 3.291-2.48 5.047-5.613 5.1m22.97-6.61h-7.473l-.99 4.723h6.708l-.634 3.018h-6.688l-1.132 5.367h7.553l-.666 3.008h-11.389l4.03-19.124h11.253zm19.078 1.049c-1.468-.965-3.318-1.368-5.31-1.368-4.648 0-7.588 3.637-7.588 8.165 0 3.092 2.143 5.577 5.393 5.577.88 0 1.478 0 1.897-.179l1.064-5.068h-4.051l.65-3.008h7.73l-2.19 10.424c-1.133.467-3.245.85-5.116.85-5.613 0-9.381-2.569-9.381-8.48 0-6.992 4.58-11.3 11.498-11.3 2.118 0 4.371.299 6.379 1.07zm5.262-48.332c-1.583-6.74-7.904-7.044-22.044-7.044h-2.023s-8.018 29.884-8.957 33.353h-65.648l-13.333-41.66s-9.937 38.112-10.906 41.66h-32.259c1.62-6.058 23.946-89.369 24.905-92.996h32.28c-1.5 5.545-10.325 38.584-10.325 38.584s32.74-36.86 34.265-38.584h90.208c13.915 0 25.65 5.23 26.032 17.259 1.027 30.088-26.708 32.887-26.708 32.887s13.794 2.442 16.472 11.142c.692 2.406.928 5.131.928 8.03 0 3.642-.372 7.53-.74 11.372-.366 3.742-.712 7.343-.712 10.65 0 .571.042 1.127.063 1.656H269.79c.23-2.138.598-4.696 1.001-7.369.74-5.136 1.525-10.413 1.525-14.533 0-1.693-.11-3.176-.43-4.407m2.511 63.4h-4.004l4.025-19.125h4.004zm18.695-15.446c-1.117-.587-2.579-.99-3.963-.99-1.373 0-3.207.545-3.207 2.19 0 3.072 6.525 2.873 6.525 8.197 0 4.675-3.684 6.373-7.872 6.373-1.845 0-3.726-.435-5.44-1.053l.964-3.276c1.494.692 3.045 1.31 4.696 1.31 1.84 0 3.637-.917 3.637-2.976 0-3.449-6.514-2.893-6.514-7.993 0-4.03 3.454-5.791 7.122-5.791 1.657 0 3.407.225 4.958.854zm19.391-.67h-5.387l-3.486 16.115h-4.004l3.48-16.115h-5.393l.65-3.009h14.77zm15.88 0h-7.5l-.98 4.722h6.688l-.603 3.018h-6.708l-1.143 5.367h7.573l-.655 3.008h-11.404l4.025-19.124h11.268zm12.285 6.608v.058c1.038.052 1.693.708 1.945 1.756l1.829 7.693h-4.015l-.928-4.491c-.455-2.034-.345-3.449-2.41-3.449h-1.457l-1.677 7.94h-3.853l4.01-19.124h4.517c3.538 0 7.62-.047 7.62 4.518 0 3.291-2.462 5.047-5.58 5.1" style="stroke-width:5.24097"/><path fill="#0084ca" d="M338.946 155.803h-1.593l-1.064 5.157h1.4c2.064 0 4.559-.629 4.559-3.15 0-2.007-1.74-2.007-3.302-2.007" style="stroke-width:5.24097"/></svg>