<svg width="461" height="156" viewBox="0 0 461 156" fill="none" xmlns="http://www.w3.org/2000/svg">
<path d="M105.858 0.0390625V28.1975C105.858 29.568 104.746 30.6852 103.371 30.6852H88.2985V0.0851296H79.7031V38.3553H106.704C110.78 38.3553 114.084 35.05 114.084 30.9731V0.0390625H105.858Z" fill="#0A2369"/>
<path d="M147.404 38.3496V10.1911C147.404 8.82059 146.288 7.70347 144.917 7.70347H129.845V38.3035H121.25V0.0390625H148.257C152.333 0.0390625 155.631 3.34437 155.631 7.42131V38.3553H147.404V38.3496Z" fill="#0A2369"/>
<path d="M189.689 0H163.305V38.0859L171.9 38.1723L189.689 38.3566C193.765 38.3566 197.07 35.0513 197.07 30.9743V7.38224C197.07 3.30531 193.765 0 189.689 0ZM188.843 28.1988C188.843 29.5693 187.726 30.6864 186.356 30.6864H171.9V7.67016H186.356C187.732 7.67016 188.843 8.78153 188.843 10.1578V28.1988Z" fill="#0A2369"/>
<path d="M253.372 0.289062H247.465H246.602V38.6111H248.427H254.339H255.197V0.289062H253.372Z" fill="#0A2369"/>
<path d="M229.513 0.65625H211.107C207.031 0.65625 203.727 3.96156 203.727 8.03273V38.9667H211.953V26.1601H229.513V38.9207H238.108V0.65625H229.513V0.65625ZM228.281 18.4957H211.953V10.814C211.953 9.43778 213.065 8.32065 214.441 8.32065H229.513V18.49H228.281V18.4957Z" fill="#0A2369"/>
<path d="M32.896 0.1875H26.9835H26.1199V14.9981H24.554H8.59534V0.1875H6.77034H0.863564H0V38.5095H1.825H7.73178H8.59534V22.6682H9.24013H26.1199V38.5095H27.9449H33.8575H34.7153V0.1875H32.896Z" fill="#0A2369"/>
<path d="M67.3325 0.140625L61.4545 9.16977L57.2518 15.6192L53.0261 9.12946L47.1654 0.140625H36.9062L52.8534 24.6195V38.6124H61.4545V24.9189L77.5916 0.140625H67.3325Z" fill="#0A2369"/>
<path d="M220.897 70.6797C203.234 70.6797 191 76.726 191 98.2335V131.051C191 149.731 204.518 156.002 220.897 156.002C238.289 156.002 249.59 149.604 250.799 131.051V98.2335C250.799 79.3288 240.989 70.6797 220.897 70.6797V70.6797ZM226.452 134.235C226.13 137.972 225.082 141.133 220.776 141.133C216.469 141.133 215.41 137.972 215.076 134.235V94.7094C215.076 90.3964 215.456 85.4096 220.776 85.4096C226.095 85.4096 226.452 90.3964 226.452 94.7094V134.235Z" fill="#0A2369"/>
<path d="M254.016 71.5604V86.7453H262.496V139.342C262.496 152.512 269.738 155.028 282.49 155.028C287.689 155.028 291.103 155.028 297.482 154.602V140.068C294.977 140.068 294.367 140.079 291.535 140.079C288.437 140.079 286.365 138.254 286.365 134.108V86.7395H297.482V71.5547H254.016V71.5604Z" fill="#0A2369"/>
<path d="M444.577 70.5391C435.228 70.5391 429.856 75.3416 427.45 82.338H427.162C425.291 75.8253 420.565 70.5391 411.06 70.5391C402.286 70.5391 396.811 75.0824 393.31 82.7296H393.017V71.6504H370.328V154.997H392.942V96.0257C393.218 91.8451 394.404 89.2193 398.918 89.2193C403.138 89.2193 404.381 92.3864 404.381 96.0257V154.997H426.943V96.0257C426.943 91.989 428.722 89.2193 432.666 89.2193C436.926 89.2193 438.124 92.4727 438.124 96.0257V154.997H460.997V86.5474C460.997 76.0038 454.134 70.5448 444.572 70.5448L444.577 70.5391Z" fill="#0A2369"/>
<path d="M331.107 70.5318C313.986 70.5894 301.297 76.3823 301.297 97.0549V131.784C301.297 150.164 315.684 155.825 331.107 155.825C350.699 155.825 360.906 149.122 360.906 134.237V122.11H336.876V131.179C336.876 136.051 336.248 140.824 331.217 140.824C326.473 140.824 325.621 135.705 325.621 131.225V115.787H360.952V93.7842C360.952 76.4342 347.446 70.4627 331.107 70.5318V70.5318ZM336.893 102.001H325.586V96.3812C325.586 90.7668 324.987 85.5958 331.257 85.5958C336.997 85.5958 336.893 91.1181 336.893 93.9742V101.996V102.001Z" fill="#0A2369"/>
<path d="M183.644 80.9234C183.644 61.5465 170.995 57.5156 154.409 57.5156H122.359V154.988H146.551V110.424H151.254C156.873 110.815 159.136 114.495 159.481 120.875C159.567 121.929 159.579 123.167 159.602 124.457H159.573V154.993H183.546V124.457C183.528 121.071 183.454 118.077 183.269 116.021C182.861 109.237 178.1 103.018 164.876 102.569V102.316C179.09 99.834 183.644 91.3116 183.644 80.9119V80.9234ZM150.143 96.4826H146.545V71.3933C146.545 71.3933 148.606 71.4279 149.625 71.4279C157.345 71.4279 159.711 75.3666 159.711 84.4015C159.711 91.0812 157.126 96.4826 150.143 96.4826Z" fill="#0A2369"/>
<path d="M310.47 20.2969L262.508 44.056V67.5444L310.47 43.7968V20.2969Z" fill="#FF0000"/>
</svg>
